<svg width="20" height="20" viewBox="0 0 20 20" fill="none" xmlns="http://www.w3.org/2000/svg">
<path d="M10.8772 18.5044C15.5396 18.5044 19.4152 14.6289 19.4152 9.9665C19.4152 5.29576 15.5396 1.42857 10.8772 1.42857C6.20643 1.42857 2.33925 5.28739 2.33925 9.95815H3.76224C3.76224 6.00726 6.9263 2.85994 10.8772 2.85994C14.8281 2.85994 17.9922 6.01563 17.9922 9.9665C17.9922 13.9174 14.8281 17.0982 10.8772 17.0815C8.49159 17.0731 6.39895 15.918 5.11826 14.1351C4.85878 13.7919 4.46536 13.683 4.1138 13.8923C3.77898 14.1016 3.68691 14.5619 3.9715 14.9302C5.5619 17.0647 8.0563 18.5044 10.8772 18.5044ZM1.30967 8.35101C0.706992 8.35101 0.556323 8.76115 0.882773 9.22993L2.75778 11.8917C3.034 12.2768 3.43578 12.2684 3.70364 11.8917L5.57864 9.22157C5.89673 8.76115 5.74606 8.35101 5.15175 8.35101H1.30967Z" fill="black" fill-opacity="0.85"/>
<path d="M10.6928 4.9693C10.2576 4.9693 9.90601 5.32086 9.90601 5.75613V10.5022C9.90601 10.7031 9.96458 10.8956 10.132 11.1049L12.1576 13.7835C12.4925 14.2187 12.9445 14.2941 13.3546 14.0178C13.7313 13.7584 13.7564 13.2813 13.4634 12.8711L10.5589 8.92856L11.488 11.7913V5.75613C11.488 5.32086 11.1281 4.9693 10.6928 4.9693Z" fill="black" fill-opacity="0.85"/>
</svg>
