<svg width="20" height="20" viewBox="0 0 20 20" fill="none" xmlns="http://www.w3.org/2000/svg">
<g clip-path="url(#clip0_0_1241)">
<path d="M4.28592 18.3232C4.629 18.591 5.06413 18.4989 5.58294 18.1224L10.0095 14.8673L14.4445 18.1224C14.9633 18.4989 15.3901 18.591 15.7416 18.3232C16.0847 18.0639 16.1599 17.6371 15.9508 17.0262L14.2018 11.8214L18.6703 8.60815C19.1891 8.23998 19.3983 7.85502 19.2644 7.43663C19.1306 7.03498 18.7372 6.83415 18.093 6.84251L12.612 6.87598L10.9467 1.64606C10.7459 1.02684 10.4447 0.717224 10.0095 0.717224C9.5828 0.717224 9.28154 1.02684 9.08074 1.64606L7.41551 6.87598L1.93455 6.84251C1.29022 6.83415 0.896928 7.03498 0.763042 7.43663C0.620788 7.85502 0.838353 8.23998 1.35716 8.60815L5.82561 11.8214L4.07673 17.0262C3.86753 17.6371 3.94284 18.0639 4.28592 18.3232Z" fill="#272829"/>
</g>
<defs>
<clipPath id="clip0_0_1241">
<rect width="18.5835" height="18.9533" fill="white" transform="translate(0.720398 0.717224)"/>
</clipPath>
</defs>
</svg>
