<svg width="25" height="24" viewBox="0 0 25 24" fill="none" xmlns="http://www.w3.org/2000/svg">
<g clip-path="url(#clip0_0_1291)">
<path d="M10.7604 22.3746H12.7889C13.5621 22.3746 14.1546 21.9026 14.3353 21.1595L14.7671 19.2816L15.0885 19.1712L16.7253 20.1754C17.3781 20.5871 18.1312 20.4867 18.6836 19.9343L20.0894 18.5385C20.6417 17.9862 20.7421 17.223 20.3304 16.5804L19.3061 14.9535L19.4267 14.6523L21.3045 14.2104C22.0375 14.0297 22.5196 13.4272 22.5196 12.664V10.6756C22.5196 9.91243 22.0476 9.30993 21.3045 9.12918L19.4467 8.67728L19.3161 8.35594L20.3405 6.72914C20.7522 6.08645 20.6517 5.3333 20.0995 4.77095L18.6936 3.36507C18.1513 2.8228 17.3982 2.72238 16.7454 3.12406L15.1086 4.12826L14.7671 3.99772L14.3353 2.11987C14.1546 1.37676 13.5621 0.904785 12.7889 0.904785H10.7604C9.98715 0.904785 9.3947 1.37676 9.21394 2.11987L8.7721 3.99772L8.43067 4.12826L6.80386 3.12406C6.15113 2.72238 5.38795 2.8228 4.84567 3.36507L3.44984 4.77095C2.89754 5.3333 2.78707 6.08645 3.20884 6.72914L4.22307 8.35594L4.10257 8.67728L2.24481 9.12918C1.5017 9.30993 1.02972 9.91243 1.02972 10.6756V12.664C1.02972 13.4272 1.51174 14.0297 2.24481 14.2104L4.12266 14.6523L4.23312 14.9535L3.21888 16.5804C2.79711 17.223 2.90758 17.9862 3.45989 18.5385L4.85572 19.9343C5.40803 20.4867 6.17122 20.5871 6.82395 20.1754L8.45076 19.1712L8.7721 19.2816L9.21394 21.1595C9.3947 21.9026 9.98715 22.3746 10.7604 22.3746ZM10.9211 20.808C10.7504 20.808 10.66 20.7377 10.6298 20.577L10.0273 18.0866C9.41479 17.936 8.84239 17.695 8.41058 17.4238L6.22143 18.7695C6.10093 18.8598 5.97038 18.8398 5.84988 18.7193L4.66493 17.5343C4.55446 17.4238 4.54442 17.3033 4.62475 17.1628L5.97038 14.9937C5.73941 14.5719 5.47833 13.9995 5.31766 13.387L2.82724 12.7945C2.66657 12.7643 2.59627 12.674 2.59627 12.5033V10.8262C2.59627 10.6455 2.65653 10.5651 2.82724 10.5351L5.30761 9.93257C5.46828 9.2798 5.76954 8.68732 5.9503 8.31577L4.61471 6.1467C4.52433 5.99608 4.53437 5.87557 4.64484 5.75507L5.83983 4.59019C5.96034 4.46969 6.0708 4.44961 6.22143 4.53999L8.3905 5.85548C8.82231 5.61447 9.43486 5.36342 10.0374 5.19272L10.6298 2.7023C10.66 2.54163 10.7504 2.47133 10.9211 2.47133H12.6283C12.799 2.47133 12.8893 2.54163 12.9094 2.7023L13.5219 5.21279C14.1446 5.37347 14.6868 5.62452 15.1387 5.86552L17.3178 4.53999C17.4785 4.44961 17.5789 4.46969 17.7094 4.59019L18.8945 5.75507C19.0149 5.87557 19.0149 5.99608 18.9245 6.1467L17.5889 8.31577C17.7798 8.68732 18.071 9.2798 18.2316 9.93257L20.7221 10.5351C20.8828 10.5651 20.953 10.6455 20.953 10.8262V12.5033C20.953 12.674 20.8726 12.7643 20.7221 12.7945L18.2216 13.387C18.0609 13.9995 17.8099 14.5719 17.5689 14.9937L18.9145 17.1628C18.9948 17.3033 18.9948 17.4238 18.8743 17.5343L17.6994 18.7193C17.5689 18.8398 17.4484 18.8598 17.3178 18.7695L15.1287 17.4238C14.6969 17.695 14.1345 17.936 13.5219 18.0866L12.9094 20.577C12.8893 20.7377 12.799 20.808 12.6283 20.808H10.9211ZM11.7747 15.4757C13.8734 15.4757 15.6006 13.7485 15.6006 11.6396C15.6006 9.5509 13.8734 7.82371 11.7747 7.82371C9.67584 7.82371 7.93861 9.5509 7.93861 11.6396C7.93861 13.7385 9.66581 15.4757 11.7747 15.4757ZM11.7747 13.9192C10.5294 13.9192 9.50516 12.8949 9.50516 11.6396C9.50516 10.4045 10.5294 9.38022 11.7747 9.38022C12.9998 9.38022 14.0241 10.4045 14.0241 11.6396C14.0241 12.8849 12.9998 13.9192 11.7747 13.9192Z" fill="#64748B"/>
</g>
<defs>
<clipPath id="clip0_0_1291">
<rect width="21.4898" height="21.4798" fill="white" transform="translate(1.02972 0.904785)"/>
</clipPath>
</defs>
</svg>
