<svg width="25" height="24" viewBox="0 0 25 24" fill="none" xmlns="http://www.w3.org/2000/svg">
<rect width="24" height="24" transform="translate(0.375)" fill="white"/>
<g clip-path="url(#clip0_0_1284)">
<path d="M5.375 11.3223C5.375 15.1504 7.9043 17.8359 11.625 18.1484V20.4238H8.00195C7.5918 20.4238 7.25977 20.7559 7.25977 21.166C7.25977 21.5762 7.5918 21.8984 8.00195 21.8984H16.7227C17.1328 21.8984 17.4648 21.5762 17.4648 21.166C17.4648 20.7559 17.1328 20.4238 16.7227 20.4238H13.0996V18.1484C16.8301 17.8359 19.3496 15.1504 19.3496 11.3223V9.33984C19.3496 8.92969 19.0273 8.60742 18.6172 8.60742C18.207 8.60742 17.875 8.92969 17.875 9.33984V11.2637C17.875 14.5938 15.707 16.8008 12.3672 16.8008C9.01758 16.8008 6.84961 14.5938 6.84961 11.2637V9.33984C6.84961 8.92969 6.52734 8.60742 6.10742 8.60742C5.69727 8.60742 5.375 8.92969 5.375 9.33984V11.3223ZM8.8125 10.9707C8.8125 13.2168 10.2578 14.7988 12.3672 14.7988C14.4668 14.7988 15.9121 13.2168 15.9121 10.9707V4.82812C15.9121 2.57227 14.4668 1 12.3672 1C10.2578 1 8.8125 2.57227 8.8125 4.82812V10.9707ZM10.2871 10.9707V4.82812C10.2871 3.38281 11.1172 2.45508 12.3672 2.45508C13.6172 2.45508 14.4375 3.38281 14.4375 4.82812V10.9707C14.4375 12.416 13.6172 13.3438 12.3672 13.3438C11.1172 13.3438 10.2871 12.416 10.2871 10.9707Z" fill="#64748B"/>
</g>
<defs>
<clipPath id="clip0_0_1284">
<rect width="13.9746" height="22.2949" fill="white" transform="translate(5.375 1)"/>
</clipPath>
</defs>
</svg>
