<svg width="21" height="21" viewBox="0 0 21 21" fill="none" xmlns="http://www.w3.org/2000/svg">
<path d="M2.84717 11.4898L1.66797 12.669L5.79516 14.4378L7.56479 18.5659L8.74398 17.3867L8.15438 14.4378L10.9172 11.675L13.9278 18.0997L15.0444 16.983L14.052 8.54102L16.4104 6.18179C16.5697 6.02793 16.6968 5.84389 16.7842 5.6404C16.8716 5.43691 16.9176 5.21805 16.9195 4.99659C16.9215 4.77513 16.8793 4.5555 16.7954 4.35052C16.7115 4.14555 16.5877 3.95932 16.4311 3.80272C16.2745 3.64612 16.0883 3.52227 15.8833 3.43841C15.6783 3.35455 15.4587 3.31235 15.2372 3.31427C15.0158 3.3162 14.7969 3.36221 14.5934 3.44962C14.3899 3.53703 14.2059 3.6641 14.052 3.8234L11.6311 6.24433L3.18908 5.25111L2.13414 6.30688L8.50881 9.36745L5.79599 12.0803L2.84717 11.4898Z" fill="#272829"/>
</svg>
