<svg width="25" height="24" viewBox="0 0 25 24" fill="none" xmlns="http://www.w3.org/2000/svg">
<g clip-path="url(#clip0_0_1277)">
<rect width="24" height="24" transform="translate(0.625)" fill="white"/>
<g clip-path="url(#clip1_0_1277)">
<path d="M3.69141 21.623H21.543C23.5742 21.623 24.6094 20.6074 24.6094 18.5957V8.37109C24.6094 6.35938 23.5742 5.35352 21.543 5.35352H18.75C17.9785 5.35352 17.7441 5.19727 17.3047 4.70898L16.5234 3.83008C16.0352 3.29297 15.5371 3 14.5312 3H10.6348C9.62891 3 9.13086 3.29297 8.64258 3.83008L7.86133 4.70898C7.42188 5.1875 7.17773 5.35352 6.41602 5.35352H3.69141C1.65039 5.35352 0.625 6.35938 0.625 8.37109V18.5957C0.625 20.6074 1.65039 21.623 3.69141 21.623ZM3.71094 20.0508C2.75391 20.0508 2.19727 19.5332 2.19727 18.5176V8.45898C2.19727 7.44336 2.75391 6.92578 3.71094 6.92578H6.80664C7.68555 6.92578 8.16406 6.75977 8.65234 6.21289L9.41406 5.35352C9.9707 4.72852 10.2637 4.57227 11.123 4.57227H14.043C14.9023 4.57227 15.1953 4.72852 15.752 5.35352L16.5137 6.21289C17.002 6.75977 17.4805 6.92578 18.3594 6.92578H21.5137C22.4805 6.92578 23.0371 7.44336 23.0371 8.45898V18.5176C23.0371 19.5332 22.4805 20.0508 21.5137 20.0508H3.71094ZM12.6172 18.6445C15.5664 18.6445 17.9395 16.2812 17.9395 13.3027C17.9395 10.334 15.5762 7.9707 12.6172 7.9707C9.6582 7.9707 7.28516 10.334 7.28516 13.3027C7.28516 16.2812 9.6582 18.6445 12.6172 18.6445ZM12.6172 17.1602C10.498 17.1602 8.75977 15.4512 8.75977 13.3027C8.75977 11.1641 10.4883 9.44531 12.6172 9.44531C14.7461 9.44531 16.4648 11.1641 16.4648 13.3027C16.4648 15.4512 14.7461 17.1602 12.6172 17.1602ZM18.3398 9.70898C18.3398 10.3926 18.9062 10.9297 19.5703 10.9297C20.2246 10.9297 20.7812 10.3828 20.7812 9.70898C20.7812 9.06445 20.2246 8.49805 19.5703 8.49805C18.9062 8.49805 18.3398 9.06445 18.3398 9.70898Z" fill="#64748B"/>
</g>
</g>
<defs>
<clipPath id="clip0_0_1277">
<rect width="24" height="24" fill="white" transform="translate(0.625)"/>
</clipPath>
<clipPath id="clip1_0_1277">
<rect width="23.9844" height="19.248" fill="white" transform="translate(0.625 3)"/>
</clipPath>
</defs>
</svg>
