<svg width="21" height="20" viewBox="0 0 21 20" fill="none" xmlns="http://www.w3.org/2000/svg">
<g clip-path="url(#clip0_0_1251)">
<path d="M13.8409 16.0848V14.5877H6.91584C5.46894 14.5877 4.5573 13.7095 4.5573 12.5052C4.5573 11.2924 5.45221 10.3892 6.91584 10.3892H12.6449C15.0703 10.3892 16.6093 8.87536 16.6093 6.78445C16.6093 4.7019 15.0703 3.20486 12.6449 3.20486H5.78675V4.7019H12.762C14.2005 4.7019 15.1121 5.5801 15.1121 6.78445C15.1121 7.99716 14.2172 8.90048 12.762 8.90048H7.03293C4.60748 8.90048 3.06859 10.4143 3.06859 12.5052C3.06859 14.5877 4.60748 16.0848 7.03293 16.0848H13.8409ZM13.2052 17.2557C13.2052 17.8579 13.6151 18.0084 14.0751 17.6822L16.7347 15.8088C17.1278 15.5328 17.1194 15.1313 16.7347 14.8637L14.0667 12.9902C13.6151 12.6724 13.2052 12.823 13.2052 13.4168V17.2557ZM6.47257 5.8645V2.03397C6.47257 1.44011 6.06275 1.28124 5.60276 1.6074L2.93477 3.47249C2.55841 3.74013 2.55004 4.14158 2.93477 4.41756L5.59439 6.29101C6.06275 6.62559 6.47257 6.46665 6.47257 5.8645Z" fill="#272829"/>
</g>
<defs>
<clipPath id="clip0_0_1251">
<rect width="16.4097" height="15.4162" fill="white" transform="matrix(0 -1 1 0 2.64935 17.8506)"/>
</clipPath>
</defs>
</svg>
